<?xml version="1.0" encoding="utf-8" standalone="no"?>
<!DOCTYPE svg PUBLIC "-//W3C//DTD SVG 1.0//EN" "http://www.w3.org/TR/SVG/DTD/svg11.dtd" >
<svg version="1.1" baseProfile="full"  width="319.13385" height="319.13385" viewBox="0 0 229.77638 229.77638" preserveAspectRatio="xMidYMid" xmlns="http://www.w3.org/2000/svg" >

<g lengthAdjust="spacingAndGlyphs" xml:space='preserve' >
<g  transform="translate(1.19,1.19)" >
<path d="
M0.0 0.0
L0.0 227.39
L227.39 227.39
L227.39 0.0
Z
" fill="none" fill-rule="nonzero" />
<line x1="125.60" y1="6.54" x2="125.60" y2="107.74" fill="none" stroke="black" stroke-width="0.25px" stroke-linecap="butt" />
<line x1="137.50" y1="6.54" x2="137.50" y2="107.74" fill="none" stroke="black" stroke-width="0.25px" stroke-linecap="butt" />
<line x1="149.41" y1="6.54" x2="149.41" y2="107.74" fill="none" stroke="black" stroke-width="0.25px" stroke-linecap="butt" />
<line x1="161.31" y1="6.54" x2="161.31" y2="107.74" fill="none" stroke="black" stroke-width="0.25px" stroke-linecap="butt" />
<line x1="173.22" y1="6.54" x2="173.22" y2="107.74" fill="none" stroke="black" stroke-width="0.25px" stroke-linecap="butt" />
<line x1="185.13" y1="6.54" x2="185.13" y2="107.74" fill="none" stroke="black" stroke-width="0.25px" stroke-linecap="butt" />
<line x1="197.03" y1="6.54" x2="197.03" y2="107.74" fill="none" stroke="black" stroke-width="0.25px" stroke-linecap="butt" />
<line x1="208.94" y1="6.54" x2="208.94" y2="107.74" fill="none" stroke="black" stroke-width="0.25px" stroke-linecap="butt" />
<line x1="220.84" y1="6.54" x2="220.84" y2="107.74" fill="none" stroke="black" stroke-width="0.87px" stroke-linecap="square" />
<line x1="119.65" y1="6.54" x2="220.84" y2="6.54" fill="none" stroke="black" stroke-width="0.87px" stroke-linecap="square" />
<line x1="119.65" y1="18.45" x2="220.84" y2="18.45" fill="none" stroke="black" stroke-width="0.25px" stroke-linecap="butt" />
<line x1="119.65" y1="30.35" x2="220.84" y2="30.35" fill="none" stroke="black" stroke-width="0.25px" stroke-linecap="butt" />
<line x1="119.65" y1="42.26" x2="220.84" y2="42.26" fill="none" stroke="black" stroke-width="0.25px" stroke-linecap="butt" />
<line x1="119.65" y1="54.17" x2="220.84" y2="54.17" fill="none" stroke="black" stroke-width="0.25px" stroke-linecap="butt" />
<line x1="119.65" y1="66.07" x2="220.84" y2="66.07" fill="none" stroke="black" stroke-width="0.25px" stroke-linecap="butt" />
<line x1="119.65" y1="77.98" x2="220.84" y2="77.98" fill="none" stroke="black" stroke-width="0.25px" stroke-linecap="butt" />
<line x1="119.65" y1="89.88" x2="220.84" y2="89.88" fill="none" stroke="black" stroke-width="0.25px" stroke-linecap="butt" />
<line x1="119.65" y1="101.79" x2="220.84" y2="101.79" fill="none" stroke="black" stroke-width="0.25px" stroke-linecap="butt" />
<circle cx="185.13" cy="18.45" r="5.85" fill="white"/>
<circle cx="185.13" cy="18.45" r="5.85" fill="none" stroke="black" stroke-width="0.25px"/>
<circle cx="185.13" cy="30.35" r="5.85" fill="white"/>
<circle cx="185.13" cy="30.35" r="5.85" fill="none" stroke="black" stroke-width="0.25px"/>
<circle cx="185.13" cy="42.26" r="5.85" fill="white"/>
<circle cx="185.13" cy="42.26" r="5.85" fill="none" stroke="black" stroke-width="0.25px"/>
<circle cx="197.03" cy="6.54" r="5.98" fill="black"/>
<circle cx="197.03" cy="18.45" r="5.98" fill="black"/>
<circle cx="197.03" cy="30.35" r="5.98" fill="black"/>
<circle cx="197.03" cy="42.26" r="5.85" fill="white"/>
<circle cx="197.03" cy="42.26" r="5.85" fill="none" stroke="black" stroke-width="0.25px"/>
<circle cx="197.03" cy="66.07" r="5.85" fill="white"/>
<circle cx="197.03" cy="66.07" r="5.85" fill="none" stroke="black" stroke-width="0.25px"/>
<circle cx="208.94" cy="18.45" r="5.85" fill="white"/>
<circle cx="208.94" cy="18.45" r="5.85" fill="none" stroke="black" stroke-width="0.25px"/>
<circle cx="208.94" cy="42.26" r="5.98" fill="black"/>
<circle cx="208.94" cy="54.17" r="5.85" fill="white"/>
<circle cx="208.94" cy="54.17" r="5.85" fill="none" stroke="black" stroke-width="0.25px"/>
<circle cx="220.84" cy="30.35" r="5.98" fill="black"/>
<path d="
M208.95 15.31
C208.35 15.31 207.88 15.47 207.53 15.77
C207.18 16.08 206.97 16.53 206.92 17.12
L207.71 17.20
C207.71 16.81 207.82 16.50 208.04 16.28
C208.27 16.06 208.56 15.95 208.93 15.95
C209.28 15.95 209.56 16.05 209.78 16.26
C210.00 16.47 210.11 16.72 210.11 17.03
C210.11 17.32 209.99 17.63 209.75 17.95
C209.51 18.28 209.05 18.72 208.37 19.28
C207.93 19.63 207.60 19.95 207.37 20.22
C207.14 20.49 206.97 20.77 206.86 21.05
C206.80 21.22 206.77 21.40 206.77 21.59
L210.90 21.59
L210.90 20.85
L207.84 20.85
C207.92 20.71 208.03 20.57 208.16 20.43
C208.29 20.29 208.59 20.03 209.05 19.65
C209.60 19.18 210.00 18.81 210.23 18.55
C210.47 18.28 210.64 18.03 210.74 17.78
C210.84 17.54 210.90 17.30 210.90 17.05
C210.90 16.55 210.72 16.14 210.37 15.81
C210.02 15.48 209.55 15.31 208.95 15.31
Z
" fill="black" fill-rule="nonzero" />
</g>
</g>
</svg>
